<?xml version="1.0" standalone="no"?>
<!DOCTYPE svg PUBLIC "-//W3C//DTD SVG 20010904//EN"
 "http://www.w3.org/TR/2001/REC-SVG-20010904/DTD/svg10.dtd">
<svg version="1.0" xmlns="http://www.w3.org/2000/svg"
 width="512.000000pt" height="512.000000pt" viewBox="0 0 512.000000 512.000000"
 preserveAspectRatio="xMidYMid meet">
<metadata>
Created by potrace 1.14, written by Peter Selinger 2001-2017
</metadata>
<g transform="translate(0.000000,512.000000) scale(0.100000,-0.100000)"
fill="#000000" stroke="none">
<path d="M2320 5109 c-491 -47 -981 -246 -1366 -557 -599 -482 -954 -1224
-954 -1992 0 -577 204 -1155 568 -1606 482 -599 1224 -954 1992 -954 577 0
1155 204 1606 568 599 482 954 1224 954 1992 0 577 -204 1155 -568 1606 -433
538 -1071 879 -1767 944 -125 11 -340 11 -465 -1z m1747 -833 c85 -18 223 -70
253 -94 20 -17 20 -18 -65 -142 -47 -69 -90 -129 -94 -133 -5 -5 -27 1 -49 12
-22 11 -75 30 -118 42 -104 28 -284 24 -356 -8 -66 -30 -135 -98 -170 -167
-26 -51 -127 -412 -128 -453 0 -10 58 -13 255 -13 140 0 255 -3 255 -7 0 -4
-26 -72 -57 -150 l-57 -143 -238 0 -238 0 -7 -27 c-3 -16 -117 -469 -252
-1008 l-246 -980 -198 -3 c-186 -2 -198 -1 -193 15 13 43 496 1984 496 1993 0
6 -63 10 -170 10 l-170 0 6 28 c4 15 21 81 38 147 l31 120 172 3 172 2 10 38
c5 20 30 117 55 214 47 184 82 274 137 355 135 199 335 325 574 363 80 12 263
5 352 -14z m-1620 -917 c35 -6 63 -16 62 -23 0 -6 -35 -92 -78 -191 -49 -115
-82 -179 -90 -177 -8 1 -46 7 -85 12 -272 34 -482 -125 -689 -520 -54 -104
-57 -113 -223 -782 l-169 -678 -198 0 c-184 0 -198 1 -193 18 3 9 129 514 281
1122 152 608 280 1122 286 1143 l10 37 169 0 c94 0 170 -4 170 -8 0 -9 -67
-383 -76 -422 -3 -14 21 13 55 63 81 118 143 190 220 253 162 134 351 187 548
153z"/>
</g>
</svg>
